<?xml version="1.0" encoding="utf-8"?>
<!-- Generator: Adobe Illustrator 22.1.0, SVG Export Plug-In . SVG Version: 6.00 Build 0)  -->
<svg version="1.1" id="Layer_1" xmlns="http://www.w3.org/2000/svg" xmlns:xlink="http://www.w3.org/1999/xlink" x="0px" y="0px"
	 viewBox="0 0 300 400" style="enable-background:new 0 0 300 400;" xml:space="preserve">
<style type="text/css">
	.st0{fill:#3F7A4B;}
	.st1{fill:#327545;}
	.st2{fill:#F8F9F8;}
</style>
<g id="y54T2p.tif">
	<g>
		<path class="st0" d="M182.5,44.6c1.3,0.3,3.3,0.8,5.7,1.5c10.1,2.9,39.5,11.5,66.1,37.6c27.9,27.5,37.2,58.5,40.4,71.7
			c3.8,16.9,7,44.3-2.1,75.1c-14.6,49.3-55,87.6-101.9,101.4c-27.7,8.1-50.5,5.5-55.4,5C65.6,330.3,8.5,272.6,2.4,202.7
			c-0.5-5.2-2.9-28.7,6-56.9c14.5-45.9,52.4-84.8,100.5-98.9C138.1,38.3,164.5,40.7,182.5,44.6z M288.8,189.2
			c-0.1-76.4-62.8-138.6-139.6-138.5C74,50.7,11.4,113.7,11.5,189.5c0.1,75.7,62.4,138.2,138,138.5
			C225.9,328.3,288.9,265.5,288.8,189.2z"/>
		<path class="st1" d="M245.7,189.8c-0.3,53.1-43.2,95.4-96.4,95.1c-52.8-0.3-95-43.4-94.7-96.8c0.3-52.6,43.8-94.9,97.2-94.4
			C203.8,94.2,246,137.4,245.7,189.8z M142.6,210.4c-10.5-8.9-20.6-16.8-30-25.5c-9-8.3-10.7,1.6-15,5.2c-5.4,4.5-5.6,8.1,0.6,12.8
			c12.6,9.7,25.1,19.7,36.4,30.8c8.8,8.7,14.1,6.6,20.4-2.2c17.7-24.5,35.5-49,54-72.9c5.6-7.3,4.1-10.5-2.6-15.2
			c-6.1-4.3-9.7-6.7-15.3,1.3C175.6,166.9,159.1,188.3,142.6,210.4z"/>
		<path class="st2" d="M142.6,210.4c16.4-22.1,33-43.6,48.5-65.7c5.6-8.1,9.2-5.7,15.3-1.3c6.7,4.7,8.2,8,2.6,15.2
			c-18.5,23.9-36.3,48.4-54,72.9c-6.4,8.8-11.6,10.9-20.4,2.2c-11.3-11.1-23.9-21.1-36.4-30.8c-6.1-4.7-6-8.3-0.6-12.8
			c4.3-3.6,6-13.5,15-5.2C122,193.7,132.1,201.6,142.6,210.4z"/>
	</g>
</g>
</svg>
