<?xml version="1.0" encoding="utf-8"?>
<!-- Generator: Adobe Illustrator 22.1.0, SVG Export Plug-In . SVG Version: 6.00 Build 0)  -->
<svg version="1.1" xmlns="http://www.w3.org/2000/svg" xmlns:xlink="http://www.w3.org/1999/xlink" x="0px" y="0px"
	 viewBox="0 0 300 400" style="enable-background:new 0 0 300 400;" xml:space="preserve">
<style type="text/css">
	.st0{display:none;}
	.st1{display:inline;}
	.st2{fill:#3F7A4B;}
	.st3{fill:#327545;}
	.st4{fill:#F8F9F8;}
</style>
<g id="BG" class="st0">
	<rect class="st1" width="298.5" height="400"/>
</g>
<g id="Correct">
	<path class="st2" d="M182.5,44.6c1.3,0.3,3.3,0.8,5.7,1.5c10.1,2.9,39.5,11.5,66.1,37.6c27.9,27.5,37.2,58.5,40.4,71.7
		c3.8,16.9,7,44.3-2.1,75.1c-14.6,49.3-55,87.6-101.9,101.4c-27.7,8.1-50.5,5.5-55.4,5C65.6,330.3,8.5,272.6,2.4,202.7
		c-0.5-5.2-2.9-28.7,6-56.9C22.9,99.9,60.8,61,108.9,46.9C138.1,38.3,164.5,40.7,182.5,44.6z M288.8,189.2
		C288.7,112.8,226,50.6,149.2,50.7c-75.2,0-137.8,63-137.7,138.8c0.1,75.7,62.4,138.2,138,138.5
		C225.9,328.3,288.9,265.5,288.8,189.2z"/>
	<path class="st3" d="M245.7,189.8c-0.3,53.1-43.2,95.4-96.4,95.1c-52.8-0.3-95-43.4-94.7-96.8c0.3-52.6,43.8-94.9,97.2-94.4
		C203.8,94.2,246,137.4,245.7,189.8z"/>
	<path class="st4" d="M142.6,210.4c16.4-22.1,33-43.6,48.5-65.7c5.6-8.1,9.2-5.7,15.3-1.3c6.7,4.7,8.2,8,2.6,15.2
		c-18.5,23.9-36.3,48.4-54,72.9c-6.4,8.8-11.6,10.9-20.4,2.2c-11.3-11.1-23.9-21.1-36.4-30.8c-6.1-4.7-6-8.3-0.6-12.8
		c4.3-3.6,6-13.5,15-5.2C122,193.7,132.1,201.6,142.6,210.4z"/>
</g>
</svg>
