<svg xmlns="http://www.w3.org/2000/svg" viewBox="0 0 677.84 700.3"><defs><style>.cls-1{fill:#f2f2f2;stroke:#000;stroke-miterlimit:10;stroke-width:12px;}.cls-2{font-size:30px;}.cls-13,.cls-2{font-family:Cambria, Cambria;}.cls-3{letter-spacing:-0.02em;}.cls-4{letter-spacing:-0.02em;}.cls-5{letter-spacing:-0.01em;}.cls-6{letter-spacing:-0.02em;}.cls-7{letter-spacing:-0.02em;}.cls-8{letter-spacing:-0.01em;}.cls-9{letter-spacing:-0.02em;}.cls-10{letter-spacing:-0.02em;}.cls-11{letter-spacing:-0.02em;}.cls-12{letter-spacing:0.01em;}.cls-13{font-size:29px;}.cls-14{letter-spacing:-0.02em;}.cls-15{letter-spacing:-0.01em;}.cls-16{letter-spacing:-0.01em;}.cls-17{letter-spacing:-0.09em;}.cls-18{letter-spacing:-0.01em;}</style></defs><title>Decipher</title><g id="Layer_2" data-name="Layer 2"><g id="Layer_1-2" data-name="Layer 1"><circle class="cls-1" cx="338.92" cy="338.92" r="332.92"/><text class="cls-2" transform="translate(64.57 345.12)">Find the 4 digits that ma<tspan class="cls-3" x="311.09" y="0">k</tspan><tspan x="326.31" y="0">e the </tspan><tspan class="cls-4" x="395.49" y="0">y</tspan><tspan x="410.02" y="0">ear that the </tspan><tspan x="9.7" y="36">Ll</tspan><tspan class="cls-5" x="33.95" y="36">o</tspan><tspan class="cls-4" x="49.43" y="36">y</tspan><tspan x="63.96" y="36">d </tspan><tspan class="cls-6" x="87.21" y="36">R</tspan><tspan x="105.3" y="36">oom </tspan><tspan class="cls-7" x="168.71" y="36">w</tspan><tspan x="191.39" y="36">as c</tspan><tspan class="cls-5" x="238.76" y="36">r</tspan><tspan x="250.73" y="36">ea</tspan><tspan class="cls-8" x="280.01" y="36">t</tspan><tspan x="289.9" y="36">ed he</tspan><tspan class="cls-5" x="358.97" y="36">r</tspan><tspan x="370.93" y="36">e at </tspan><tspan class="cls-9" x="423.58" y="36">B</tspan><tspan x="441.39" y="36">Y</tspan><tspan class="cls-10" x="458.5" y="36">U</tspan><tspan x="477.22" y="36">, then </tspan><tspan x="143.84" y="72">add f</tspan><tspan class="cls-11" x="207.46" y="72">i</tspan><tspan class="cls-4" x="215.19" y="72">v</tspan><tspan x="229.72" y="72">e </tspan><tspan class="cls-8" x="250.96" y="72">t</tspan><tspan x="260.85" y="72">o each digi</tspan><tspan class="cls-12" x="397.18" y="72">t</tspan><tspan x="407.78" y="72">.</tspan><tspan x="210.96" y="108">EXAMPLE:</tspan><tspan x="247.36" y="144">0 = 5</tspan><tspan x="247.36" y="180">1 = 6</tspan><tspan x="247.36" y="216">2 = 7</tspan><tspan x="247.36" y="252">3 = 8</tspan></text><text class="cls-13" transform="translate(190.32 126.68)">Hopeful<tspan class="cls-14" x="98.24" y="0">l</tspan><tspan x="105.54" y="0">y </tspan><tspan class="cls-4" x="126.54" y="0">y</tspan><tspan x="140.58" y="0">ou a</tspan><tspan class="cls-15" x="192.54" y="0">r</tspan><tspan x="204.11" y="0">e smart </tspan><tspan x="-6" y="34.8">enou</tspan><tspan class="cls-16" x="55.74" y="34.8">g</tspan><tspan x="69.88" y="34.8">h </tspan><tspan class="cls-8" x="92.26" y="34.8">t</tspan><tspan x="101.82" y="34.8">o figu</tspan><tspan class="cls-5" x="170.78" y="34.8">r</tspan><tspan x="182.35" y="34.8">e this ou</tspan><tspan class="cls-12" x="287.01" y="34.8">t</tspan><tspan x="297.25" y="34.8">. </tspan><tspan class="cls-17" x="-34.86" y="69.6">Y</tspan><tspan x="-20.87" y="69.6">ou’</tspan><tspan class="cls-5" x="16.95" y="69.6">r</tspan><tspan x="28.52" y="69.6">e </tspan><tspan class="cls-5" x="49.05" y="69.6">r</tspan><tspan x="60.62" y="69.6">ecital will begin in the </tspan><tspan x="45.99" y="104.4">n</tspan><tspan class="cls-18" x="62.18" y="104.4">e</tspan><tspan x="75.98" y="104.4">xt 10 minu</tspan><tspan class="cls-8" x="209.09" y="104.4">t</tspan><tspan x="218.65" y="104.4">es.</tspan><tspan x="263.94" y="139.2">-Emi</tspan><tspan class="cls-14" x="322.44" y="139.2">l</tspan><tspan x="329.73" y="139.2">y</tspan></text></g></g></svg>