<svg xmlns="http://www.w3.org/2000/svg" viewBox="0 0 706.5 1002"><defs><style>.cls-1,.cls-10{fill:#f0f3f5;}.cls-2{fill:#d4d7d9;}.cls-13,.cls-3,.cls-7,.cls-9{fill:none;}.cls-10,.cls-11,.cls-3{stroke:#999;}.cls-10,.cls-11,.cls-3,.cls-7{stroke-miterlimit:10;}.cls-4{fill:#c0c3c4;}.cls-5{font-size:23.4px;}.cls-5,.cls-8{font-family:ArialRoundedMTBold, Arial Rounded MT Bold;}.cls-6{fill:#012e62;}.cls-7,.cls-9{stroke:#007aff;}.cls-7{stroke-width:2px;}.cls-8{font-size:28.29px;fill:#007aff;}.cls-13,.cls-9{stroke-linecap:round;stroke-linejoin:round;}.cls-9{stroke-width:4px;}.cls-11{fill:#999;}.cls-12{fill:#fff;}.cls-13{stroke:#fff;stroke-width:0.75px;}.cls-14{font-size:16px;font-family:MyriadPro-Regular, Myriad Pro;}.cls-15{letter-spacing:-0.01em;}.cls-16{letter-spacing:0em;}.cls-17{letter-spacing:0em;}.cls-18{letter-spacing:0.02em;}.cls-19{letter-spacing:-0.01em;}.cls-20{letter-spacing:-0.01em;}.cls-21{letter-spacing:0em;}.cls-22{letter-spacing:0em;}.cls-23{letter-spacing:-0.04em;}.cls-24{letter-spacing:-0.03em;}.cls-25{letter-spacing:-0.01em;}.cls-26{letter-spacing:-0.01em;}.cls-27{letter-spacing:-0.01em;}.cls-28{letter-spacing:-0.01em;}.cls-29{letter-spacing:0.01em;}.cls-30{letter-spacing:0em;}.cls-31{letter-spacing:-0.04em;}.cls-32{letter-spacing:-0.03em;}.cls-33{letter-spacing:-0.01em;}.cls-34{letter-spacing:0em;}.cls-35{letter-spacing:0.01em;}.cls-36{letter-spacing:-0.01em;}.cls-37{letter-spacing:0.01em;}.cls-38{letter-spacing:-0.01em;}.cls-39{letter-spacing:0em;}.cls-40{letter-spacing:-0.01em;}.cls-41{letter-spacing:0.01em;}.cls-42{letter-spacing:0em;}</style></defs><title>ipadTextWithoutLastText</title><g id="Layer_2" data-name="Layer 2"><g id="Layer_1-2" data-name="Layer 1"><rect class="cls-1" width="706" height="1002" rx="11" ry="11"/><path class="cls-2" d="M11.5.5h684a11,11,0,0,1,11,11v86a0,0,0,0,1,0,0H.5a0,0,0,0,1,0,0v-86A11,11,0,0,1,11.5.5Z"/><line class="cls-3" x1="0.5" y1="98" x2="706.5" y2="98"/><rect class="cls-4" x="47.5" y="158.5" width="361" height="121.53" rx="11" ry="11"/><path class="cls-4" d="M35.5,292.5s8-16.7,12-45,3.14,27.31,3.14,27.31S44.5,287.83,35.5,292.5Z"/><rect class="cls-4" x="47.5" y="320.5" width="361" height="78" rx="11" ry="11"/><path class="cls-4" d="M35.5,406.5s8-10.72,12-28.86,3.14,17.53,3.14,17.53S44.5,403.5,35.5,406.5Z"/><text class="cls-5" transform="translate(286.31 84.72)">BYU ADMIN</text><g id="WZ0cIb"><path class="cls-6" d="M352.19,11.53a52.34,52.34,0,0,1,17.91,3.52,35.91,35.91,0,0,1,10.49,6.09,20.55,20.55,0,0,1,6.09,8.16,15.21,15.21,0,0,1-1.56,14.31,24.85,24.85,0,0,1-7.4,7.29,42.28,42.28,0,0,1-13,5.67,57.39,57.39,0,0,1-16.56,1.74,53.09,53.09,0,0,1-18.57-3.9,35,35,0,0,1-9.85-6,20.09,20.09,0,0,1-5.88-8.3,15.16,15.16,0,0,1,1.58-13.56A24.53,24.53,0,0,1,323,18.94a41.92,41.92,0,0,1,13-5.63A61,61,0,0,1,352.19,11.53Zm.86,23.38L342.36,22.37c1.56-.23,3.05-.45,4.54-.59.19,0,.23-.09.22-.26-.11-1.62-.22-3.24-.31-4.85,0-.25-.11-.27-.32-.25-1.58.13-3.15.32-4.71.6A43.88,43.88,0,0,0,331.61,20a25.11,25.11,0,0,0-6.36,3.88c-.17.14-.22.23-.06.43q1.35,1.69,2.67,3.41c.15.19.24.2.44.06a20.56,20.56,0,0,1,3.44-2.13.29.29,0,0,1,.43.09c4.13,5,8.34,10,12.54,15a.61.61,0,0,1,.19.39q0,3.25,0,6.51c0,.2-.06.22-.25.2-1.32-.14-2.64-.26-4-.41-.22,0-.3,0-.34.24-.27,1.41-.54,2.82-.83,4.22-.07.33,0,.47.35.55a49.1,49.1,0,0,0,8.28,1.05A55.79,55.79,0,0,0,356,53.2c1.82-.17,3.63-.44,5.43-.79.23,0,.25-.13.21-.35-.26-1.51-.6-3-1-4.5-.05-.24-.14-.31-.39-.28-1.39.17-2.78.31-4.17.49-.35,0-.37-.08-.37-.37,0-1.95.05-3.91.06-5.87a1.18,1.18,0,0,1,.29-.82c2.07-2.42,4.12-4.85,6.18-7.28l6-7.11c.1-.1.15-.25.36-.11a27.25,27.25,0,0,1,3.46,2.48c.2.17.28.13.42-.05,1-1.21,1.94-2.42,2.93-3.61.19-.23.15-.34-.06-.52A29.07,29.07,0,0,0,370,20.76a29.44,29.44,0,0,0-10.53-3.31c-.27,0-.38,0-.42.31-.23,1.6-.47,3.21-.72,4.8,0,.22,0,.29.23.33l2,.43,1.82.42Z"/></g><circle class="cls-7" cx="651" cy="43" r="15.5"/><text class="cls-8" transform="translate(647.44 53.53)">i</text><polyline class="cls-9" points="71.5 24.5 48 48 71.5 71.5"/><rect class="cls-10" x="305.5" y="956" width="356.5" height="27.5" rx="12" ry="12"/><circle class="cls-11" cx="648" cy="970" r="11"/><rect class="cls-12" x="646" y="963" width="4" height="11" rx="2" ry="2"/><line class="cls-13" x1="645.45" y1="978.77" x2="650.55" y2="978.77"/><line class="cls-13" x1="648" y1="974.93" x2="648" y2="978.77"/><path class="cls-13" d="M645.11,968.74c-.13,4-.49,6.19,2.89,6.19,3.16,0,3-1.57,2.9-6.19"/><text class="cls-14" transform="translate(62.5 183.16)"><tspan class="cls-15">T</tspan><tspan class="cls-16" x="7.84" y="0">his is the Lib</tspan><tspan class="cls-17" x="89.65" y="0">r</tspan><tspan x="94.8" y="0">a</tspan><tspan class="cls-18" x="102.51" y="0">r</tspan><tspan x="108.14" y="0">y </tspan><tspan class="cls-19" x="119.07" y="0">A</tspan><tspan x="128.67" y="0">dminist</tspan><tspan class="cls-20" x="179.04" y="0">r</tspan><tspan class="cls-21" x="184.19" y="0">a</tspan><tspan class="cls-22" x="191.84" y="0">tion.</tspan><tspan class="cls-23" x="221.85" y="0"> </tspan><tspan class="cls-24" x="224.67" y="0">W</tspan><tspan x="237.68" y="0">e just </tspan><tspan class="cls-25" x="276.81" y="0">r</tspan><tspan x="281.88" y="0">e</tspan><tspan class="cls-26" x="289.9" y="0">c</tspan><tspan x="296.97" y="0">ei</tspan><tspan class="cls-25" x="308.73" y="0">v</tspan><tspan x="316.27" y="0">ed </tspan><tspan class="cls-27" x="0" y="19.2">w</tspan><tspan x="11.62" y="19.2">o</tspan><tspan class="cls-27" x="20.4" y="19.2">r</tspan><tspan x="25.47" y="19.2">d th</tspan><tspan class="cls-21" x="52.06" y="19.2">a</tspan><tspan x="59.71" y="19.2">t </tspan><tspan class="cls-27" x="68.4" y="19.2">y</tspan><tspan x="75.77" y="19.2">ou a</tspan><tspan class="cls-25" x="104.48" y="19.2">r</tspan><tspan x="109.55" y="19.2">e </tspan><tspan class="cls-25" x="120.96" y="19.2">r</tspan><tspan x="126.03" y="19.2">esponsible </tspan><tspan class="cls-28" x="201.52" y="19.2">f</tspan><tspan x="205.98" y="19.2">or the the</tspan><tspan class="cls-29" x="271.16" y="19.2">f</tspan><tspan x="276.01" y="19.2">t of the </tspan><tspan x="0" y="38.4">violin music f</tspan><tspan class="cls-27" x="87.49" y="38.4">r</tspan><tspan x="92.56" y="38.4">om the Ll</tspan><tspan class="cls-15" x="154.99" y="38.4">o</tspan><tspan class="cls-27" x="163.66" y="38.4">y</tspan><tspan x="171.04" y="38.4">d </tspan><tspan class="cls-30" x="183.45" y="38.4">A</tspan><tspan x="193.2" y="38.4">l</tspan><tspan class="cls-30" x="196.97" y="38.4">e</tspan><tspan x="204.94" y="38.4">xander </tspan><tspan class="cls-30" x="254.6" y="38.4">e</tspan><tspan x="262.57" y="38.4">xhibi</tspan><tspan class="cls-30" x="295.45" y="38.4">t</tspan><tspan x="300.7" y="38.4">.</tspan><tspan class="cls-31" x="304.01" y="38.4"> </tspan><tspan class="cls-32" x="306.83" y="38.4">W</tspan><tspan x="319.83" y="38.4">e </tspan><tspan x="0" y="57.6">h</tspan><tspan class="cls-33" x="8.88" y="57.6">a</tspan><tspan class="cls-27" x="16.46" y="57.6">v</tspan><tspan x="24" y="57.6">e notified campus secu</tspan><tspan class="cls-34" x="177.12" y="57.6">r</tspan><tspan x="182.41" y="57.6">i</tspan><tspan class="cls-35" x="186.16" y="57.6">t</tspan><tspan x="191.6" y="57.6">y and they a</tspan><tspan class="cls-27" x="272.36" y="57.6">r</tspan><tspan x="277.44" y="57.6">e on </tspan><tspan x="0" y="76.8">their </tspan><tspan class="cls-21" x="34.56" y="76.8">w</tspan><tspan class="cls-33" x="46.27" y="76.8">a</tspan><tspan class="cls-22" x="53.85" y="76.8">y </tspan><tspan class="cls-36" x="64.78" y="76.8">t</tspan><tspan x="69.98" y="76.8">o app</tspan><tspan class="cls-25" x="108.08" y="76.8">r</tspan><tspan x="113.15" y="76.8">ehend </tspan><tspan class="cls-25" x="159.35" y="76.8">y</tspan><tspan x="166.73" y="76.8">o</tspan><tspan class="cls-33" x="175.52" y="76.8">u</tspan><tspan x="184.2" y="76.8">. </tspan></text><text class="cls-14" transform="translate(59.24 342.86)"><tspan class="cls-37">I</tspan><tspan x="3.98" y="0">f </tspan><tspan class="cls-27" x="12.05" y="0">y</tspan><tspan x="19.42" y="0">ou a</tspan><tspan class="cls-27" x="48.13" y="0">r</tspan><tspan x="53.2" y="0">e </tspan><tspan class="cls-27" x="64.61" y="0">r</tspan><tspan x="69.68" y="0">eally guiltles</tspan><tspan class="cls-38" x="152.59" y="0">s</tspan><tspan class="cls-22" x="158.75" y="0">, make su</tspan><tspan class="cls-25" x="220.57" y="0">r</tspan><tspan x="225.64" y="0">e th</tspan><tspan class="cls-21" x="251.23" y="0">a</tspan><tspan x="258.87" y="0">t the music </tspan><tspan x="0" y="19.2">has been </tspan><tspan class="cls-27" x="63.73" y="19.2">r</tspan><tspan x="68.8" y="19.2">etu</tspan><tspan class="cls-34" x="90.92" y="19.2">r</tspan><tspan x="96.22" y="19.2">ned </tspan><tspan class="cls-36" x="125.53" y="19.2">t</tspan><tspan class="cls-16" x="130.73" y="19.2">o the </tspan><tspan class="cls-39" x="168.49" y="19.2">e</tspan><tspan x="176.46" y="19.2">xhibit be</tspan><tspan class="cls-40" x="235.14" y="19.2">f</tspan><tspan x="239.61" y="19.2">o</tspan><tspan class="cls-27" x="248.39" y="19.2">r</tspan><tspan x="253.46" y="19.2">e secu</tspan><tspan class="cls-34" x="295.21" y="19.2">r</tspan><tspan x="300.5" y="19.2">i</tspan><tspan class="cls-35" x="304.25" y="19.2">t</tspan><tspan x="309.69" y="19.2">y </tspan><tspan x="0" y="38.4">a</tspan><tspan class="cls-34" x="7.71" y="38.4">rr</tspan><tspan x="18.3" y="38.4">i</tspan><tspan class="cls-27" x="22.05" y="38.4">v</tspan><tspan x="29.58" y="38.4">es in the n</tspan><tspan class="cls-30" x="97.8" y="38.4">e</tspan><tspan class="cls-41" x="105.77" y="38.4">x</tspan><tspan x="113.39" y="38.4">t </tspan><tspan class="cls-35" x="122.08" y="38.4">t</tspan><tspan class="cls-27" x="127.52" y="38.4">w</tspan><tspan x="139.13" y="38.4">e</tspan><tspan class="cls-42" x="147.15" y="38.4">n</tspan><tspan class="cls-35" x="155.96" y="38.4">t</tspan><tspan x="161.4" y="38.4">y minu</tspan><tspan class="cls-36" x="207.11" y="38.4">t</tspan><tspan x="212.31" y="38.4">e</tspan><tspan class="cls-38" x="220.33" y="38.4">s</tspan><tspan x="226.49" y="38.4">. </tspan></text></g></g></svg>