{
    "accessors" : [
        {
            "bufferView" : 0,
            "componentType" : 5121,
            "count" : 768,
            "max" : [
                194
            ],
            "min" : [
                0
            ],
            "type" : "SCALAR"
        },
        {
            "bufferView" : 1,
            "componentType" : 5126,
            "count" : 195,
            "max" : [
                4.303335666656494,
                3.636956214904785,
                4.303337097167969
            ],
            "min" : [
                -4.303336143493652,
                -1.0,
                -4.3033342361450195
            ],
            "type" : "VEC3"
        },
        {
            "bufferView" : 2,
            "componentType" : 5126,
            "count" : 195,
            "max" : [
                0.8140507340431213,
                -0.5807672142982483,
                0.8140507340431213
            ],
            "min" : [
                -0.8140507340431213,
                -0.5807672142982483,
                -0.8140507340431213
            ],
            "type" : "VEC3"
        },
        {
            "bufferView" : 3,
            "componentType" : 5126,
            "count" : 195,
            "max" : [
                1.0,
                0.02327270805835724,
                1.0,
                1.0
            ],
            "min" : [
                -1.0,
                -0.023271776735782623,
                -1.0,
                1.0
            ],
            "type" : "VEC4"
        },
        {
            "bufferView" : 4,
            "componentType" : 5126,
            "count" : 195,
            "max" : [
                0.8558911085128784,
                0.738996684551239
            ],
            "min" : [
                0.09778713434934616,
                0.34772008657455444
            ],
            "type" : "VEC2"
        },
        {
            "bufferView" : 5,
            "componentType" : 5123,
            "count" : 2496,
            "max" : [
                417
            ],
            "min" : [
                0
            ],
            "type" : "SCALAR"
        },
        {
            "bufferView" : 6,
            "componentType" : 5126,
            "count" : 418,
            "max" : [
                0.9358594417572021,
                1.4785327911376953,
                0.9358594417572021
            ],
            "min" : [
                -0.9358594417572021,
                -1.0,
                -0.9358594417572021
            ],
            "type" : "VEC3"
        },
        {
            "bufferView" : 7,
            "componentType" : 5126,
            "count" : 418,
            "max" : [
                0.999908447265625,
                1.0,
                0.999908447265625
            ],
            "min" : [
                -0.999908447265625,
                -1.0,
                -0.999908447265625
            ],
            "type" : "VEC3"
        },
        {
            "bufferView" : 8,
            "componentType" : 5126,
            "count" : 3,
            "max" : [
                7.458333333333333
            ],
            "min" : [
                0.0
            ],
            "type" : "SCALAR"
        },
        {
            "bufferView" : 9,
            "componentType" : 5126,
            "count" : 3,
            "max" : [
                4.190951585769653e-09,
                0.0,
                3.6638463073043965e-16
            ],
            "min" : [
                -4.190951585769653e-09,
                0.0,
                -7.327692614608793e-16
            ],
            "type" : "VEC3"
        },
        {
            "bufferView" : 10,
            "componentType" : 5126,
            "count" : 3,
            "max" : [
                7.458333333333333
            ],
            "min" : [
                0.0
            ],
            "type" : "SCALAR"
        },
        {
            "bufferView" : 11,
            "componentType" : 5126,
            "count" : 3,
            "max" : [
                0.0,
                1.0,
                -0.0,
                1.0
            ],
            "min" : [
                0.0,
                -3.2584136988589307e-07,
                -0.0,
                1.6292068494294654e-07
            ],
            "type" : "VEC4"
        },
        {
            "bufferView" : 12,
            "componentType" : 5126,
            "count" : 3,
            "max" : [
                7.458333333333333
            ],
            "min" : [
                0.0
            ],
            "type" : "SCALAR"
        },
        {
            "bufferView" : 13,
            "componentType" : 5126,
            "count" : 3,
            "max" : [
                0.4876576066017151,
                0.13609957695007324,
                0.4876576066017151
            ],
            "min" : [
                0.4876576066017151,
                0.13609957695007324,
                0.4876576066017151
            ],
            "type" : "VEC3"
        },
        {
            "bufferView" : 14,
            "componentType" : 5126,
            "count" : 3,
            "max" : [
                7.458333333333333
            ],
            "min" : [
                0.0
            ],
            "type" : "SCALAR"
        },
        {
            "bufferView" : 15,
            "componentType" : 5126,
            "count" : 3,
            "max" : [
                4.190951585769653e-09,
                0.373663991689682,
                3.6638463073043965e-16
            ],
            "min" : [
                -4.190951585769653e-09,
                0.373663991689682,
                -7.327692614608793e-16
            ],
            "type" : "VEC3"
        },
        {
            "bufferView" : 16,
            "componentType" : 5126,
            "count" : 3,
            "max" : [
                7.458333333333333
            ],
            "min" : [
                0.0
            ],
            "type" : "SCALAR"
        },
        {
            "bufferView" : 17,
            "componentType" : 5126,
            "count" : 3,
            "max" : [
                0.0,
                1.0,
                -0.0,
                1.0
            ],
            "min" : [
                0.0,
                -3.2584136988589307e-07,
                -0.0,
                1.6292068494294654e-07
            ],
            "type" : "VEC4"
        },
        {
            "bufferView" : 18,
            "componentType" : 5126,
            "count" : 3,
            "max" : [
                7.458333333333333
            ],
            "min" : [
                0.0
            ],
            "type" : "SCALAR"
        },
        {
            "bufferView" : 19,
            "componentType" : 5126,
            "count" : 3,
            "max" : [
                0.18758240342140198,
                0.18758240342140198,
                0.18758240342140198
            ],
            "min" : [
                0.18758240342140198,
                0.18758240342140198,
                0.18758240342140198
            ],
            "type" : "VEC3"
        }
    ],
    "animations" : [
        {
            "channels" : [
                {
                    "sampler" : 0,
                    "target" : {
                        "node" : 0,
                        "path" : "translation"
                    }
                },
                {
                    "sampler" : 1,
                    "target" : {
                        "node" : 0,
                        "path" : "rotation"
                    }
                },
                {
                    "sampler" : 2,
                    "target" : {
                        "node" : 0,
                        "path" : "scale"
                    }
                }
            ],
            "name" : "CubeAction.001",
            "samplers" : [
                {
                    "input" : 8,
                    "interpolation" : "LINEAR",
                    "output" : 9
                },
                {
                    "input" : 10,
                    "interpolation" : "LINEAR",
                    "output" : 11
                },
                {
                    "input" : 12,
                    "interpolation" : "LINEAR",
                    "output" : 13
                }
            ]
        },
        {
            "channels" : [
                {
                    "sampler" : 0,
                    "target" : {
                        "node" : 1,
                        "path" : "translation"
                    }
                },
                {
                    "sampler" : 1,
                    "target" : {
                        "node" : 1,
                        "path" : "rotation"
                    }
                },
                {
                    "sampler" : 2,
                    "target" : {
                        "node" : 1,
                        "path" : "scale"
                    }
                }
            ],
            "name" : "CylinderAction.001",
            "samplers" : [
                {
                    "input" : 14,
                    "interpolation" : "LINEAR",
                    "output" : 15
                },
                {
                    "input" : 16,
                    "interpolation" : "LINEAR",
                    "output" : 17
                },
                {
                    "input" : 18,
                    "interpolation" : "LINEAR",
                    "output" : 19
                }
            ]
        }
    ],
    "asset" : {
        "generator" : "Khronos Blender glTF 2.0 exporter",
        "version" : "2.0"
    },
    "bufferViews" : [
        {
            "buffer" : 0,
            "byteLength" : 768,
            "byteOffset" : 0,
            "target" : 34963
        },
        {
            "buffer" : 0,
            "byteLength" : 2340,
            "byteOffset" : 768,
            "target" : 34962
        },
        {
            "buffer" : 0,
            "byteLength" : 2340,
            "byteOffset" : 3108,
            "target" : 34962
        },
        {
            "buffer" : 0,
            "byteLength" : 3120,
            "byteOffset" : 5448,
            "target" : 34962
        },
        {
            "buffer" : 0,
            "byteLength" : 1560,
            "byteOffset" : 8568,
            "target" : 34962
        },
        {
            "buffer" : 0,
            "byteLength" : 4992,
            "byteOffset" : 10128,
            "target" : 34963
        },
        {
            "buffer" : 0,
            "byteLength" : 5016,
            "byteOffset" : 15120,
            "target" : 34962
        },
        {
            "buffer" : 0,
            "byteLength" : 5016,
            "byteOffset" : 20136,
            "target" : 34962
        },
        {
            "buffer" : 0,
            "byteLength" : 12,
            "byteOffset" : 25152
        },
        {
            "buffer" : 0,
            "byteLength" : 36,
            "byteOffset" : 25164
        },
        {
            "buffer" : 0,
            "byteLength" : 12,
            "byteOffset" : 25200
        },
        {
            "buffer" : 0,
            "byteLength" : 48,
            "byteOffset" : 25212
        },
        {
            "buffer" : 0,
            "byteLength" : 12,
            "byteOffset" : 25260
        },
        {
            "buffer" : 0,
            "byteLength" : 36,
            "byteOffset" : 25272
        },
        {
            "buffer" : 0,
            "byteLength" : 12,
            "byteOffset" : 25308
        },
        {
            "buffer" : 0,
            "byteLength" : 36,
            "byteOffset" : 25320
        },
        {
            "buffer" : 0,
            "byteLength" : 12,
            "byteOffset" : 25356
        },
        {
            "buffer" : 0,
            "byteLength" : 48,
            "byteOffset" : 25368
        },
        {
            "buffer" : 0,
            "byteLength" : 12,
            "byteOffset" : 25416
        },
        {
            "buffer" : 0,
            "byteLength" : 36,
            "byteOffset" : 25428
        }
    ],
    "buffers" : [
        {
            "byteLength" : 25464,
            "uri" : "MusicStandRejection.bin"
        }
    ],
    "images" : [
        {
            "mimeType" : "image/png",
            "name" : "Artboard 1",
            "uri" : "data:image/png;base64,"
        }
    ],
    "materials" : [
        {
            "alphaCutoff" : 0.4999999701976776,
            "alphaMode" : "MASK",
            "doubleSided" : true,
            "emissiveFactor" : [
                1.0,
                1.0,
                1.0
            ],
            "name" : "Material.001",
            "pbrMetallicRoughness" : {
                "baseColorFactor" : [
                    1.0,
                    0.8641607761383057,
                    0.7774168848991394,
                    1.0
                ],
                "baseColorTexture" : {
                    "index" : 0
                }
            }
        },
        {
            "name" : "Material.002",
            "pbrMetallicRoughness" : {
                "metallicFactor" : 0.5818182229995728,
                "roughnessFactor" : 0.3636363744735718
            }
        }
    ],
    "meshes" : [
        {
            "name" : "Cylinder",
            "primitives" : [
                {
                    "attributes" : {
                        "NORMAL" : 2,
                        "POSITION" : 1,
                        "TANGENT" : 3,
                        "TEXCOORD_0" : 4
                    },
                    "indices" : 0,
                    "material" : 0
                }
            ]
        },
        {
            "name" : "Cube.001",
            "primitives" : [
                {
                    "attributes" : {
                        "NORMAL" : 7,
                        "POSITION" : 6
                    },
                    "indices" : 5,
                    "material" : 1
                }
            ]
        }
    ],
    "nodes" : [
        {
            "mesh" : 1,
            "name" : "Cube",
            "rotation" : [
                0.0,
                -3.258413983076025e-07,
                -0.0,
                1.0
            ],
            "scale" : [
                0.4876576066017151,
                0.13609957695007324,
                0.4876576066017151
            ],
            "translation" : [
                -4.190951585769653e-09,
                0.0,
                -7.327692614608793e-16
            ]
        },
        {
            "mesh" : 0,
            "name" : "Cylinder",
            "rotation" : [
                0.0,
                -3.2584136988589307e-07,
                -0.0,
                1.0
            ],
            "scale" : [
                0.18758240342140198,
                0.18758240342140198,
                0.18758240342140198
            ],
            "translation" : [
                -4.190951585769653e-09,
                0.373663991689682,
                -7.327692614608793e-16
            ]
        }
    ],
    "samplers" : [
        {}
    ],
    "scene" : 0,
    "scenes" : [
        {
            "name" : "Scene",
            "nodes" : [
                1,
                0
            ]
        }
    ],
    "textures" : [
        {
            "sampler" : 0,
            "source" : 0
        }
    ]
}
