<svg xmlns="http://www.w3.org/2000/svg" xmlns:xlink="http://www.w3.org/1999/xlink" viewBox="0 0 246.49 277.82"><defs><style>.cls-1{fill:#ffd79a;}.cls-2{fill:#fcd497;}.cls-3{fill:#7b5030;}.cls-4{fill:#7a542f;}.cls-5{fill:url(#linear-gradient);}.cls-6{fill:url(#linear-gradient-2);}.cls-7{font-size:24px;font-family:LucidaBlackletter, Lucida Blackletter;}.cls-8{fill:none;stroke:#000;stroke-miterlimit:10;stroke-width:3px;}.cls-9{font-size:18px;font-family:Apple-Chancery, Apple Chancery;}.cls-10{letter-spacing:-0.01em;}.cls-11{letter-spacing:-0.05em;}</style><linearGradient id="linear-gradient" x1="123.11" y1="23.38" x2="123.11" y2="19.51" gradientUnits="userSpaceOnUse"><stop offset="0" stop-color="#fcd497"/><stop offset="1" stop-opacity="0.3"/></linearGradient><linearGradient id="linear-gradient-2" x1="123.35" y1="256.1" x2="123.35" y2="252.46" gradientTransform="translate(246.53 510.74) rotate(180)" xlink:href="#linear-gradient"/></defs><title>MusicReturn</title><g id="Layer_2" data-name="Layer 2"><g id="Layer_1-2" data-name="Layer 1"><path class="cls-1" d="M32.57,2.05H213.81c2.83,5.55,2.57,11.74,0,18L32.57,19.79Q28.52,11.29,32.57,2.05Z"/><path class="cls-1" d="M32.57,257.57c-2.86,5.31-2.47,11.45-.18,18.11l181.6.52c2.64-6.37,2.95-12.47,0-18.19Z"/><polygon class="cls-2" points="32.57 19.79 213.81 20.34 213.81 258.01 32.57 257.57 32.57 19.79"/><path class="cls-3" d="M32.57,20.59c-2.4-5.89-2.1-12.06,0-18.54C32.19-.59,30-.33,28.06.9c-3.38,4.22-2.57,18.73-.9,19.69C29,23.07,30.85,23.32,32.57,20.59Z"/><path class="cls-3" d="M213.81,2.05c1.31-2.6,3.1-2.86,5.54,0,3,5.75,2.68,11.89,0,18.29q-2.76,4.25-5.54,0C216.31,14,216.71,7.8,213.81,2.05Z"/><path class="cls-3" d="M213.81,258c1.39-3.57,3.22-4,5.67,0,2.15,5.38,1.74,11.57,0,18.19-2.46,2.12-4.34,2.09-5.67,0C216.5,269.91,217.07,263.81,213.81,258Z"/><path class="cls-3" d="M32.57,257.57c-1.5-3.33-3.86-2.64-5.79.44a46.47,46.47,0,0,0,.35,17.24c1.3,3,3.21,3.63,5.26.43A22.8,22.8,0,0,1,32.57,257.57Z"/><path class="cls-3" d="M0,267.11c.85-6.81,5-9.35,13.9-5.8a31.53,31.53,0,0,0,12.88-1.16,32.88,32.88,0,0,0,0,13c-3.71-1.86-8.22-2.16-13.39-1.15C5.71,274.42.85,273.29,0,267.11Z"/><path class="cls-4" d="M246.38,266c-.66,6.07-3.87,8.54-9.78,7.2-5.64-2.36-11.06-1.76-16.48,0a24.13,24.13,0,0,0-.27-13.57,23.56,23.56,0,0,0,16,.67C241.81,258.46,245.47,260.13,246.38,266Z"/><path class="cls-4" d="M219.85,17.83a23.79,23.79,0,0,1,14.63-.47c7.76,1.88,11.61-.35,12-6.17-.81-6.75-5.32-8.51-13.32-5.57a24.36,24.36,0,0,1-13.32-1.14C222.14,8.75,221.93,13.21,219.85,17.83Z"/><path class="cls-4" d="M26.48,4.61a26.44,26.44,0,0,1-13.15.88C6,2.45,1.92,4.88.11,10.92c.56,5.94,4.3,8.25,11.54,6.58a23,23,0,0,1,14.5,0Z"/><polygon class="cls-5" points="32.41 23.54 32.57 19.79 213.81 20.04 213.81 23.54 32.41 23.54"/><polygon class="cls-6" points="213.81 254.5 213.81 258.01 32.57 257.57 32.56 254.5 213.81 254.5"/><text class="cls-7" transform="translate(37.73 61.15)">Congratulations</text><line class="cls-8" x1="44.63" y1="77.67" x2="196.69" y2="77.67"/><text class="cls-9" transform="translate(67.77 127.15)">Thank you for <tspan class="cls-10" x="4.92" y="20">r</tspan><tspan x="12.16" y="20">eturning the </tspan><tspan x="-4.69" y="40">music. </tspan><tspan class="cls-11" x="46.94" y="40">Y</tspan><tspan x="57.67" y="40">ou have </tspan><tspan x="-1.51" y="60">p</tspan><tspan class="cls-10" x="7.44" y="60">r</tspan><tspan x="14.68" y="60">oven yourself </tspan><tspan x="21.11" y="80">innocent.</tspan><tspan x="10.12" y="100">Thank </tspan><tspan class="cls-11" x="66.13" y="100">Y</tspan><tspan x="76.86" y="100">ou!</tspan></text></g></g></svg>