<svg xmlns="http://www.w3.org/2000/svg" viewBox="0 0 706.5 1002"><defs><style>.cls-1,.cls-10{fill:#f0f3f5;}.cls-2{fill:#d4d7d9;}.cls-13,.cls-3,.cls-7,.cls-9{fill:none;}.cls-10,.cls-11,.cls-3{stroke:#999;}.cls-10,.cls-11,.cls-3,.cls-7{stroke-miterlimit:10;}.cls-4{fill:#c0c3c4;}.cls-5{font-size:23.4px;}.cls-5,.cls-8{font-family:ArialRoundedMTBold, Arial Rounded MT Bold;}.cls-6{letter-spacing:-0.01em;}.cls-7,.cls-9{stroke:#007aff;}.cls-7{stroke-width:2px;}.cls-8{font-size:28.29px;fill:#007aff;}.cls-13,.cls-9{stroke-linecap:round;stroke-linejoin:round;}.cls-9{stroke-width:4px;}.cls-11{fill:#999;}.cls-12{fill:#fff;}.cls-13{stroke:#fff;stroke-width:0.75px;}.cls-14{font-size:16px;font-family:MyriadPro-Regular, Myriad Pro;}.cls-15{letter-spacing:0.01em;}.cls-16{letter-spacing:0em;}.cls-17{letter-spacing:-0.01em;}.cls-18{letter-spacing:0.02em;}.cls-19{letter-spacing:-0.07em;}.cls-20{letter-spacing:0em;}.cls-21{letter-spacing:-0.01em;}.cls-22{letter-spacing:-0.01em;}.cls-23{letter-spacing:-0.04em;}.cls-24{letter-spacing:-0.01em;}.cls-25{letter-spacing:-0.04em;}.cls-26{letter-spacing:-0.01em;}.cls-27{letter-spacing:0em;}.cls-28{letter-spacing:-0.01em;}.cls-29{letter-spacing:-0.05em;}.cls-30{letter-spacing:0em;}.cls-31{letter-spacing:-0.01em;}.cls-32{letter-spacing:0em;}.cls-33{letter-spacing:-0.01em;}.cls-34{letter-spacing:-0.01em;}.cls-35{letter-spacing:0em;}.cls-36{letter-spacing:-0.01em;}.cls-37{letter-spacing:0em;}.cls-38{letter-spacing:0.03em;}.cls-39{letter-spacing:-0.01em;}.cls-40{letter-spacing:0.01em;}.cls-41{letter-spacing:0.03em;}.cls-42{letter-spacing:0em;}.cls-43{letter-spacing:0.03em;}.cls-44{letter-spacing:-0.08em;}.cls-45{letter-spacing:-0.01em;}.cls-46{letter-spacing:-0.01em;}</style></defs><title>StephanyText2</title><g id="Layer_2" data-name="Layer 2"><g id="Layer_1-2" data-name="Layer 1"><rect class="cls-1" width="706" height="1002" rx="11" ry="11"/><path class="cls-2" d="M11.5.5h684a11,11,0,0,1,11,11v86a0,0,0,0,1,0,0H.5a0,0,0,0,1,0,0v-86A11,11,0,0,1,11.5.5Z"/><line class="cls-3" x1="0.5" y1="98" x2="706.5" y2="98"/><rect class="cls-4" x="47.5" y="128.8" width="361" height="151.23" rx="11" ry="11"/><path class="cls-4" d="M35.5,283s8-10.72,12-28.86,3.14,17.53,3.14,17.53S44.5,280,35.5,283Z"/><text class="cls-5" transform="translate(299.74 58.35)">St<tspan class="cls-6" x="23.89" y="0">e</tspan><tspan x="37.49" y="0">phany</tspan></text><circle class="cls-7" cx="651" cy="43" r="15.5"/><text class="cls-8" transform="translate(647.44 53.53)">i</text><polyline class="cls-9" points="71.5 24.5 48 48 71.5 71.5"/><rect class="cls-10" x="305.5" y="956" width="356.5" height="27.5" rx="12" ry="12"/><circle class="cls-11" cx="648" cy="970" r="11"/><rect class="cls-12" x="646" y="963" width="4" height="11" rx="2" ry="2"/><line class="cls-13" x1="645.45" y1="978.77" x2="650.55" y2="978.77"/><line class="cls-13" x1="648" y1="974.93" x2="648" y2="978.77"/><path class="cls-13" d="M645.11,968.74c-.13,4-.49,6.19,2.89,6.19,3.16,0,3-1.57,2.9-6.19"/><text class="cls-14" transform="translate(59.24 151.16)"><tspan class="cls-15">H</tspan><tspan x="10.59" y="0">i f</tspan><tspan class="cls-16" x="22.4" y="0">r</tspan><tspan x="27.69" y="0">iend</tspan><tspan class="cls-17" x="57.36" y="0">s</tspan><tspan x="63.52" y="0">, i</tspan><tspan class="cls-18" x="73.97" y="0">t</tspan><tspan class="cls-19" x="79.6" y="0">’</tspan><tspan x="81.76" y="0">s me </tspan><tspan class="cls-20" x="116.24" y="0">S</tspan><tspan class="cls-21" x="124.08" y="0">t</tspan><tspan x="129.28" y="0">epha</tspan><tspan class="cls-22" x="162.99" y="0">n</tspan><tspan class="cls-23" x="171.66" y="0">y</tspan><tspan x="178.57" y="0">. </tspan><tspan class="cls-24" x="185.27" y="0">I</tspan><tspan class="cls-25" x="189.02" y="0">’</tspan><tspan x="191.71" y="0">m supposed </tspan><tspan class="cls-21" x="277.35" y="0">t</tspan><tspan x="282.55" y="0">o per</tspan><tspan x="317.08" y="0">-</tspan><tspan class="cls-26" x="0" y="19.2">f</tspan><tspan x="4.46" y="19.2">o</tspan><tspan class="cls-27" x="13.25" y="19.2">r</tspan><tspan x="18.54" y="19.2">m </tspan><tspan class="cls-26" x="35.28" y="19.2">m</tspan><tspan x="48.42" y="19.2">y violin </tspan><tspan class="cls-28" x="99.36" y="19.2">r</tspan><tspan x="104.43" y="19.2">ecital in half an hou</tspan><tspan class="cls-29" x="234.45" y="19.2">r</tspan><tspan x="238.83" y="19.2">, but I just </tspan><tspan x="0" y="38.4">looked i</tspan><tspan class="cls-30" x="53.02" y="38.4">n</tspan><tspan class="cls-31" x="61.84" y="38.4">t</tspan><tspan x="67.04" y="38.4">o </tspan><tspan class="cls-26" x="79.21" y="38.4">m</tspan><tspan class="cls-32" x="92.35" y="38.4">y locker and </tspan><tspan class="cls-33" x="176.16" y="38.4">r</tspan><tspan x="181.23" y="38.4">eali</tspan><tspan class="cls-34" x="204.48" y="38.4">z</tspan><tspan x="211.21" y="38.4">ed it </tspan><tspan class="cls-35" x="244.07" y="38.4">w</tspan><tspan x="255.79" y="38.4">as gone! </tspan><tspan x="0" y="57.6">One of </tspan><tspan class="cls-26" x="48.16" y="57.6">m</tspan><tspan x="61.29" y="57.6">y f</tspan><tspan class="cls-27" x="76.89" y="57.6">r</tspan><tspan x="82.19" y="57.6">iends s</tspan><tspan class="cls-36" x="127.92" y="57.6">a</tspan><tspan class="cls-21" x="135.5" y="57.6">y</tspan><tspan x="142.94" y="57.6">s he s</tspan><tspan class="cls-36" x="179.29" y="57.6">a</tspan><tspan class="cls-37" x="186.88" y="57.6">w a </tspan><tspan class="cls-21" x="213.15" y="57.6">g</tspan><tspan x="222" y="57.6">i</tspan><tspan class="cls-27" x="225.74" y="57.6">r</tspan><tspan x="231.04" y="57.6">l hide it in a </tspan><tspan class="cls-28" x="0" y="76.8">r</tspan><tspan x="5.07" y="76.8">oom with </tspan><tspan class="cls-28" x="72.46" y="76.8">y</tspan><tspan class="cls-32" x="79.84" y="76.8">o</tspan><tspan class="cls-36" x="88.63" y="76.8">u</tspan><tspan class="cls-37" x="97.31" y="76.8">. </tspan><tspan class="cls-24" x="104.02" y="76.8">I</tspan><tspan class="cls-23" x="107.76" y="76.8">’</tspan><tspan x="110.45" y="76.8" xml:space="preserve">m  busy getting </tspan><tspan class="cls-28" x="218.27" y="76.8">r</tspan><tspan x="223.34" y="76.8">eady </tspan><tspan class="cls-26" x="259.02" y="76.8">f</tspan><tspan class="cls-32" x="263.48" y="76.8">or the </tspan><tspan x="0" y="96">pe</tspan><tspan class="cls-38" x="17.12" y="96">r</tspan><tspan class="cls-26" x="22.83" y="96">f</tspan><tspan x="27.3" y="96">o</tspan><tspan class="cls-16" x="36.08" y="96">r</tspan><tspan x="41.38" y="96">man</tspan><tspan class="cls-31" x="71.31" y="96">c</tspan><tspan x="78.38" y="96">e but I </tspan><tspan class="cls-28" x="123.61" y="96">r</tspan><tspan x="128.68" y="96">eally need </tspan><tspan class="cls-26" x="200.22" y="96">m</tspan><tspan class="cls-32" x="213.35" y="96">y musi</tspan><tspan class="cls-28" x="256.52" y="96">c</tspan><tspan x="263.53" y="96">. </tspan><tspan class="cls-17" x="270.23" y="96">C</tspan><tspan x="279.34" y="96">ould </tspan><tspan class="cls-28" x="0" y="115.2">y</tspan><tspan x="7.38" y="115.2">ou find it </tspan><tspan class="cls-26" x="70.46" y="115.2">f</tspan><tspan class="cls-32" x="74.93" y="115.2">or me?</tspan></text><rect class="cls-4" x="47.5" y="305.5" width="361" height="78" rx="11" ry="11"/><path class="cls-4" d="M35.5,391.5s8-10.72,12-28.86,3.14,17.53,3.14,17.53S44.5,388.5,35.5,391.5Z"/><text class="cls-14" transform="translate(59.24 327.86)"><tspan class="cls-15">I</tspan><tspan x="3.98" y="0">f </tspan><tspan class="cls-28" x="12.05" y="0">y</tspan><tspan x="19.42" y="0">ou find </tspan><tspan class="cls-26" x="70.08" y="0">m</tspan><tspan x="83.21" y="0">y musi</tspan><tspan class="cls-33" x="126.38" y="0">c</tspan><tspan class="cls-37" x="133.39" y="0">, it belongs in </tspan><tspan class="cls-22" x="225.77" y="0">m</tspan><tspan x="238.91" y="0">y music cas</tspan><tspan class="cls-39" x="313.85" y="0">e</tspan><tspan x="321.67" y="0">. I </tspan><tspan x="0" y="19.2">le</tspan><tspan class="cls-40" x="11.79" y="19.2">f</tspan><tspan x="16.64" y="19.2">t it in the Ll</tspan><tspan class="cls-34" x="90.68" y="19.2">o</tspan><tspan class="cls-33" x="99.36" y="19.2">y</tspan><tspan x="106.73" y="19.2">d </tspan><tspan class="cls-20" x="119.15" y="19.2">A</tspan><tspan x="128.89" y="19.2">l</tspan><tspan class="cls-20" x="132.67" y="19.2">e</tspan><tspan x="140.63" y="19.2">xander Exhibit </tspan><tspan class="cls-28" x="239.74" y="19.2">r</tspan><tspan x="244.81" y="19.2">oom in the </tspan><tspan x="0" y="38.4">lib</tspan><tspan class="cls-24" x="16.62" y="38.4">r</tspan><tspan x="21.78" y="38.4">a</tspan><tspan class="cls-41" x="29.49" y="38.4">r</tspan><tspan class="cls-23" x="35.12" y="38.4">y</tspan><tspan x="42.03" y="38.4">.</tspan></text><rect class="cls-4" x="47.5" y="478.5" width="361" height="92" rx="11" ry="11"/><path class="cls-4" d="M35.5,575.5s8-10.72,12-28.86,3.14,17.53,3.14,17.53S44.5,572.5,35.5,575.5Z"/><text class="cls-14" transform="translate(59.24 500.86)"><tspan class="cls-34">T</tspan><tspan class="cls-32" x="7.84" y="0">hank </tspan><tspan class="cls-33" x="44.21" y="0">y</tspan><tspan x="51.58" y="0">ou </tspan><tspan class="cls-26" x="72.58" y="0">f</tspan><tspan x="77.04" y="0">or finding </tspan><tspan class="cls-26" x="145.68" y="0">m</tspan><tspan x="158.82" y="0">y music and putting it in </tspan><tspan x="0" y="19.2">the case! N</tspan><tspan class="cls-34" x="72.41" y="19.2">o</tspan><tspan class="cls-32" x="81.09" y="19.2">w </tspan><tspan class="cls-42" x="96.25" y="19.2">I</tspan><tspan x="100" y="19.2">’ll be able </tspan><tspan class="cls-31" x="166.76" y="19.2">t</tspan><tspan class="cls-37" x="171.96" y="19.2">o pe</tspan><tspan class="cls-43" x="201.26" y="19.2">r</tspan><tspan class="cls-26" x="206.97" y="19.2">f</tspan><tspan x="211.43" y="19.2">o</tspan><tspan class="cls-27" x="220.22" y="19.2">r</tspan><tspan x="225.51" y="19.2">m </tspan><tspan class="cls-30" x="242.25" y="19.2">a</tspan><tspan x="249.9" y="19.2">t </tspan><tspan class="cls-22" x="258.58" y="19.2">m</tspan><tspan class="cls-37" x="271.72" y="19.2">y </tspan><tspan class="cls-28" x="282.65" y="19.2">r</tspan><tspan x="287.72" y="19.2">ecital! </tspan><tspan class="cls-44" x="0" y="38.4">Y</tspan><tspan x="7.44" y="38.4">ou h</tspan><tspan class="cls-36" x="37.31" y="38.4">a</tspan><tspan class="cls-28" x="44.9" y="38.4">v</tspan><tspan x="52.43" y="38.4">e no idea h</tspan><tspan class="cls-45" x="125.66" y="38.4">o</tspan><tspan x="134.33" y="38.4">w much this means </tspan><tspan class="cls-21" x="266.43" y="38.4">t</tspan><tspan class="cls-32" x="271.63" y="38.4">o m</tspan><tspan class="cls-46" x="297.14" y="38.4">e</tspan><tspan x="304.97" y="38.4">. </tspan><tspan class="cls-34" x="0" y="57.6">T</tspan><tspan class="cls-32" x="7.84" y="57.6">hak </tspan><tspan class="cls-28" x="35.33" y="57.6">y</tspan><tspan x="42.7" y="57.6">o</tspan><tspan class="cls-36" x="51.49" y="57.6">u</tspan><tspan x="60.18" y="57.6">, thank </tspan><tspan class="cls-28" x="108.54" y="57.6">y</tspan><tspan x="115.92" y="57.6">o</tspan><tspan class="cls-36" x="124.7" y="57.6">u</tspan><tspan x="133.39" y="57.6">, thank </tspan><tspan class="cls-28" x="181.76" y="57.6">y</tspan><tspan x="189.13" y="57.6">ou!!!</tspan></text><rect class="cls-4" x="47.5" y="410.66" width="361" height="39" rx="11" ry="11"/><path class="cls-4" d="M35.5,455.66s8-10.72,12-28.86,3.14,17.53,3.14,17.53S44.5,452.66,35.5,455.66Z"/><text class="cls-14" transform="translate(59.24 433.02)"><tspan class="cls-34">T</tspan><tspan class="cls-32" x="7.84" y="0">hank </tspan><tspan class="cls-33" x="44.21" y="0">y</tspan><tspan x="51.58" y="0">ou SOOOOOOO so so much!!!!</tspan></text></g></g></svg>