<?xml version="1.0" encoding="utf-8"?>
<!-- Generator: Adobe Illustrator 22.1.0, SVG Export Plug-In . SVG Version: 6.00 Build 0)  -->
<svg version="1.1" xmlns="http://www.w3.org/2000/svg" xmlns:xlink="http://www.w3.org/1999/xlink" x="0px" y="0px"
	 viewBox="0 0 300 400" style="enable-background:new 0 0 300 400;" xml:space="preserve">
<style type="text/css">
	.st0{display:none;}
	.st1{display:inline;}
	.st2{fill:#010101;}
	.st3{fill:#CD3032;}
	.st4{fill:#FFFFFF;}
</style>
<g id="BG_1_" class="st0">
	<g id="BG" class="st1">
		<rect class="st2" width="300" height="400"/>
	</g>
</g>
<g id="Cross">
	<path class="st3" d="M182.4,44.6c1.3,0.3,3.3,0.8,5.7,1.5c10.1,2.9,39.5,11.5,66.1,37.6c27.9,27.5,37.2,58.5,40.4,71.7
		c3.8,16.9,7,44.3-2.1,75.1c-14.6,49.3-55,87.6-101.9,101.4c-27.7,8.1-50.5,5.5-55.4,5C65.5,330.3,8.4,272.6,2.3,202.7
		c-0.5-5.2-2.9-28.7,6-56.9C22.8,99.9,60.7,61,108.8,46.9C138,38.3,164.4,40.7,182.4,44.6z M288.7,189.2
		c-0.1-76.4-62.8-138.6-139.6-138.5c-75.2,0-137.8,63-137.7,138.8c0.1,75.7,62.4,138.2,138,138.5
		C225.8,328.3,288.8,265.5,288.7,189.2z"/>
	<path class="st3" d="M245.6,189.9c-0.3,53.1-43.2,95.4-96.4,95.1c-52.8-0.3-95-43.4-94.7-96.8c0.3-52.6,43.8-94.9,97.2-94.4
		C203.7,94.3,245.9,137.5,245.6,189.9z"/>
	<path class="st4" d="M207.5,238.7l-8.1,8.1c-2.3,2.3-6.2,2.3-8.5,0l-98.3-98.3c-2.3-2.3-2.3-6.2,0-8.5l8.1-8.1
		c2.3-2.3,6.2-2.3,8.5,0l98.3,98.3C209.8,232.5,209.8,236.4,207.5,238.7z"/>
	<path class="st4" d="M100.7,246.8l-8.1-8.1c-2.3-2.3-2.3-6.2,0-8.5l98.3-98.3c2.3-2.3,6.2-2.3,8.5,0l8.1,8.1c2.3,2.3,2.3,6.2,0,8.5
		l-98.3,98.3C106.9,249.1,103,249.1,100.7,246.8z"/>
</g>
</svg>
